<svg width="16" height="16" viewBox="0 0 16 16" fill="none" xmlns="http://www.w3.org/2000/svg">
<g clip-path="url(#clip0_3450_25489)">
<path d="M7.07711 -0.0192871C5.87219 -0.0192871 4.90419 0.981944 4.90419 2.19241V2.46133H2.46173C2.12265 2.46133 1.84634 2.73764 1.84634 3.07671V3.6921H1.23096V4.92287H2.46173V14.1536C2.46173 15.1659 3.29557 15.9998 4.30788 15.9998H11.6925C12.7048 15.9998 13.5386 15.1659 13.5386 14.1536V4.92287H14.7694V3.6921H14.154V3.07671C14.154 2.73764 13.8777 2.46133 13.5386 2.46133H11.0962V2.19179C11.0962 0.981944 10.1282 -0.0192871 8.92326 -0.0192871H7.07711ZM7.07711 1.24964H8.92326C9.41803 1.24964 9.82726 1.65333 9.82726 2.19179V2.46133H6.1725V2.19179C6.1725 1.65333 6.58173 1.25025 7.0765 1.25025L7.07711 1.24964ZM3.6925 4.92287H6.84634C6.92265 4.93087 6.99834 4.94194 7.07711 4.94194H8.92326C9.00203 4.94194 9.07711 4.93087 9.15403 4.92287H12.3079V14.1536C12.3079 14.5001 12.039 14.769 11.6925 14.769H4.30788C3.96142 14.769 3.6925 14.5001 3.6925 14.1536V4.92287ZM4.92326 6.15364V13.5383H6.15403V6.15364H4.92326ZM7.3848 6.15364V13.5383H8.61557V6.15364H7.3848ZM9.84634 6.15364V13.5383H11.0771V6.15364H9.84634Z" fill="#111A2C"/>
</g>
<defs>
<clipPath id="clip0_3450_25489">
<rect width="16" height="16" fill="white"/>
</clipPath>
</defs>
</svg>
