<svg width="16" height="16" viewBox="0 0 16 16" fill="none" xmlns="http://www.w3.org/2000/svg">
<path fill-rule="evenodd" clip-rule="evenodd" d="M7.99978 8.66655C7.58409 8.66169 7.20933 8.91621 7.06059 9.30442C6.91185 9.69263 7.0206 10.1324 7.33312 10.4066V11.3332C7.33312 11.7014 7.63159 11.9999 7.99978 11.9999C8.36797 11.9999 8.66645 11.7014 8.66645 11.3332V10.4066C8.97897 10.1324 9.08771 9.69263 8.93898 9.30442C8.79024 8.91621 8.41548 8.66169 7.99978 8.66655ZM11.3332 5.99992V4.66659C11.3332 2.82564 9.84079 1.33325 7.99984 1.33325C6.15889 1.33325 4.6665 2.82564 4.6665 4.66659V5.99992C3.56193 5.99992 2.6665 6.89535 2.6665 7.99992V12.6666C2.6665 13.7712 3.56193 14.6666 4.6665 14.6666H11.3332C12.4377 14.6666 13.3332 13.7712 13.3332 12.6666V7.99992C13.3332 6.89535 12.4377 5.99992 11.3332 5.99992ZM5.99984 4.66659C5.99984 3.56202 6.89527 2.66659 7.99984 2.66659C9.10441 2.66659 9.99984 3.56202 9.99984 4.66659V5.99992H5.99984V4.66659ZM11.9998 12.6666C11.9998 13.0348 11.7014 13.3333 11.3332 13.3333H4.6665C4.29831 13.3333 3.99984 13.0348 3.99984 12.6666V7.99992C3.99984 7.63173 4.29831 7.33325 4.6665 7.33325H11.3332C11.7014 7.33325 11.9998 7.63173 11.9998 7.99992V12.6666Z" fill="#111A2C"/>
</svg>
